<?xml version="1.0" ?><!DOCTYPE svg  PUBLIC '-//W3C//DTD SVG 1.1//EN'  'http://www.w3.org/Graphics/SVG/1.1/DTD/svg11.dtd'><svg enable-background="new 0 0 64 64" height="64px" id="Windows_Visual_Studio" version="1.1" viewBox="0 0 64 64" width="64px" xml:space="preserve" xmlns="http://www.w3.org/2000/svg" xmlns:xlink="http://www.w3.org/1999/xlink"><linearGradient gradientTransform="matrix(1 0 0 1 -2192 -2908)" gradientUnits="userSpaceOnUse" id="Circle_Shadow_1_" x1="2256.0293" x2="2224.03" y1="2972" y2="2940.0007"><stop offset="0.3163" style="stop-color:#FFFFFF;stop-opacity:0"/><stop offset="0.3508" style="stop-color:#E9E9E9;stop-opacity:0.0504"/><stop offset="0.4543" style="stop-color:#ACACAC;stop-opacity:0.2018"/><stop offset="0.5572" style="stop-color:#787878;stop-opacity:0.3523"/><stop offset="0.6569" style="stop-color:#4D4D4D;stop-opacity:0.4981"/><stop offset="0.7528" style="stop-color:#2B2B2B;stop-opacity:0.6385"/><stop offset="0.8441" style="stop-color:#131313;stop-opacity:0.7719"/><stop offset="0.9286" style="stop-color:#050505;stop-opacity:0.8956"/><stop offset="1" style="stop-color:#000000"/></linearGradient><polygon enable-background="new    " fill="url(#Circle_Shadow_1_)" id="Circle_Shadow" opacity="0.2" points="64.029,64   64.029,30.059 49,15.029 15.059,48.971 30.088,64 "/><circle cx="32" cy="32" fill="#68217A" id="Circle" r="24"/><g id="B_shadow"><g><defs><circle cx="32.029" cy="32" id="SVGID_1_" r="24"/></defs><clipPath id="SVGID_2_"><use overflow="visible" xlink:href="#SVGID_1_"/></clipPath><linearGradient gradientTransform="matrix(1 0 0 -1 -274 -299)" gradientUnits="userSpaceOnUse" id="SVGID_3_" x1="352.7656" x2="295.7662" y1="-375.2329" y2="-318.2334"><stop offset="0.5408" style="stop-color:#000000;stop-opacity:0"/><stop offset="0.6837" style="stop-color:#000000"/></linearGradient><polygon clip-path="url(#SVGID_2_)" enable-background="new    " fill="url(#SVGID_3_)" opacity="0.3" points="78.895,51.893     78.895,51.831 78.787,51.786 78.787,51.725 78.682,51.68 78.682,51.618 78.574,51.573 78.574,51.514 78.469,51.468 78.469,51.406     78.361,51.361 78.361,51.3 78.256,51.255 78.256,51.193 78.148,51.148 78.148,51.087 78.043,51.042 78.043,50.98 77.938,50.936     77.938,50.874 77.831,50.829 77.831,50.768 77.725,50.723 77.725,50.662 77.618,50.617 77.618,50.557 77.512,50.511     77.512,50.449 77.404,50.404 77.404,50.343 77.299,50.298 77.299,50.236 77.191,50.191 77.191,50.131 77.086,50.086     77.086,50.023 76.98,49.979 76.98,49.918 76.874,49.873 76.874,49.813 76.768,49.768 76.768,49.705 76.661,49.66 76.661,49.6     76.555,49.555 76.555,49.492 76.448,49.447 76.448,49.386 76.342,49.341 76.342,49.279 76.236,49.234 76.236,49.173 76.13,49.128     76.13,49.066 76.023,49.021 76.023,48.961 75.917,48.916 75.917,48.854 75.811,48.811 75.811,48.748 75.704,48.703 75.704,48.643     75.598,48.598 75.598,48.535 75.491,48.49 75.491,48.43 75.387,48.385 75.387,48.322 75.279,48.277 75.279,48.217 75.173,48.172     75.173,48.109 75.066,48.064 75.066,48.004 74.96,47.959 74.96,47.896 74.854,47.854 74.854,47.791 74.748,47.746 74.748,47.686     74.641,47.641 74.641,47.579 74.535,47.534 74.535,47.473 74.43,47.428 74.43,47.366 74.322,47.32 74.322,47.26 74.216,47.215     74.216,47.152 74.109,47.107 74.109,47.047 74.004,47.002 74.004,46.939 73.896,46.896 73.896,46.835 73.791,46.79 73.791,46.729     73.686,46.684 73.686,46.622 73.578,46.577 73.578,46.516 73.473,46.471 73.473,46.409 73.365,46.364 73.365,46.303     73.259,46.258 73.259,46.195 73.152,46.15 73.152,46.09 73.047,46.045 73.047,45.984 72.939,45.939 72.939,45.878 72.834,45.833     72.834,45.771 72.729,45.727 72.729,45.665 72.621,45.62 72.621,45.559 72.516,45.514 72.516,45.453 72.408,45.407 72.408,45.346     72.303,45.301 72.303,45.24 72.195,45.193 72.195,45.134 72.09,45.089 72.09,45.027 71.982,44.982 71.982,44.921 71.877,44.876     71.877,44.814 71.771,44.77 71.771,44.709 71.665,44.664 71.665,44.604 71.559,44.559 71.559,44.496 71.452,44.451 71.452,44.391     71.346,44.346 71.346,44.283 71.238,44.238 71.238,44.177 71.133,44.132 71.133,44.07 71.025,44.025 71.025,43.964 70.92,43.919     70.92,43.857 70.813,43.813 70.813,43.752 70.708,43.707 70.708,43.645 70.602,43.6 70.602,43.539 70.495,43.494 70.495,43.434     70.389,43.389 70.389,43.326 70.283,43.281 70.283,43.221 70.176,43.174 70.176,43.113 70.07,43.068 70.07,43.008 69.963,42.962     69.963,42.9 69.857,42.855 69.857,42.795 69.751,42.75 69.751,42.688 69.645,42.645 69.645,42.582 69.538,42.537 69.538,42.477     69.432,42.432 69.432,42.369 69.326,42.324 69.326,42.264 69.221,42.219 69.221,42.157 69.113,42.111 69.113,42.051     69.007,42.006 69.007,41.943 68.9,41.898 68.9,41.838 68.794,41.793 68.794,41.73 68.688,41.688 68.688,41.626 68.581,41.581     68.581,41.52 68.475,41.475 68.475,41.413 68.369,41.368 68.369,41.307 68.264,41.262 68.264,41.2 68.156,41.154 68.156,41.094     68.05,41.049 68.05,40.986 67.943,40.941 67.943,40.881 67.838,40.836 67.838,40.775 67.73,40.729 67.73,40.668 67.625,40.623     67.625,40.563 67.52,40.518 67.52,40.456 67.412,40.411 67.412,40.35 67.307,40.305 67.307,40.243 67.199,40.198 67.199,40.137     67.093,40.092 67.093,40.031 66.986,39.986 66.986,39.925 66.881,39.88 66.881,39.818 66.773,39.773 66.773,39.712 66.668,39.667     66.668,39.605 66.563,39.561 66.563,39.5 66.455,39.455 66.455,39.393 66.35,39.348 66.35,39.287 66.242,39.242 66.242,39.182     66.137,39.136 66.137,39.074 66.029,39.027 66.029,38.968 65.924,38.923 65.924,38.861 65.816,38.816 65.816,38.755 65.711,38.71     65.711,38.648 65.605,38.604 65.605,38.542 65.498,38.496 65.498,38.436 65.393,38.391 65.393,38.33 65.285,38.284 65.285,38.225     65.18,38.18 65.18,38.117 65.073,38.072 65.073,38.011 64.967,37.966 64.967,37.904 64.859,37.859 64.859,37.799 64.754,37.754     64.754,37.691 64.646,37.646 64.646,37.586 64.542,37.541 64.542,37.479 64.436,37.436 64.436,37.373 64.329,37.328     64.329,37.268 64.223,37.223 64.223,37.16 64.116,37.115 64.116,37.055 64.01,37.01 64.01,36.947 63.902,36.902 63.902,36.842     63.797,36.797 63.797,36.734 63.691,36.689 63.691,36.629 63.585,36.584 63.585,36.521 63.479,36.479 63.479,36.416     63.372,36.371 63.372,36.311 63.266,36.266 63.266,36.203 63.16,36.158 63.16,36.098 63.053,36.052 63.053,35.991 62.947,35.945     62.947,35.885 62.841,35.84 62.841,35.777 62.734,35.732 62.734,35.672 62.628,35.627 62.628,35.564 62.521,35.521 62.521,35.459     62.416,35.414 62.416,35.354 62.309,35.307 62.309,35.247 62.203,35.202 62.203,35.141 62.098,35.096 62.098,35.034 61.99,34.989     61.99,34.928 61.884,34.883 61.884,34.822 61.777,34.777 61.777,34.715 61.671,34.67 61.671,34.607 61.564,34.563 61.564,34.503     61.459,34.458 61.459,34.396 61.352,34.352 61.352,34.29 61.246,34.245 61.246,34.184 61.141,34.139 61.141,34.077 61.033,34.032     61.033,33.971 60.927,33.926 60.927,33.865 60.82,33.82 60.82,33.758 60.715,33.713 60.715,33.652 60.607,33.607 60.607,33.546     60.502,33.501 60.502,33.439 60.395,33.395 60.395,33.333 60.289,33.288 60.289,33.227 60.184,33.182 60.184,33.121     60.076,33.076 60.076,33.014 59.971,32.969 59.971,32.908 59.863,32.863 59.863,32.802 59.758,32.757 59.758,32.695 59.65,32.65     59.65,32.589 59.545,32.544 59.545,32.482 59.438,32.438 59.438,32.376 59.333,32.331 59.333,32.271 59.227,32.225 59.227,32.164     59.119,32.119 59.119,32.058 59.014,32.013 59.014,31.951 58.907,31.906 58.907,31.845 58.801,31.8 58.801,31.738 58.693,31.693     58.693,31.632 58.588,31.587 58.588,31.525 58.482,31.48 58.482,31.42 58.376,31.375 58.376,31.313 58.27,31.268 58.27,31.207     58.163,31.162 58.163,31.101 58.057,31.056 58.057,30.995 57.95,30.95 57.95,30.888 57.844,30.843 57.844,30.781 57.738,30.736     57.738,30.676 57.631,30.63 57.631,30.569 57.525,30.524 57.525,30.463 57.418,30.417 57.418,30.356 57.313,30.312 57.313,30.25     57.206,30.205 57.206,30.144 57.1,30.099 57.1,30.038 56.993,29.993 56.993,29.931 56.887,29.886 56.887,29.825 56.781,29.78     56.781,29.719 56.674,29.673 56.674,29.612 56.568,29.567 56.568,29.506 56.462,29.461 56.462,29.399 56.355,29.354     56.355,29.294 56.249,29.249 56.249,29.187 56.143,29.142 56.143,29.081 56.037,29.036 56.037,28.975 55.932,28.93 55.932,28.869     55.824,28.824 55.824,28.762 55.717,28.716 55.717,28.655 55.611,28.61 55.611,28.549 55.505,28.504 55.505,28.443 55.398,28.398     55.398,28.336 55.292,28.292 55.292,28.23 55.186,28.185 55.186,28.124 55.08,28.079 55.08,28.018 54.975,27.973 54.975,27.911     54.867,27.866 54.867,27.805 54.762,27.76 54.762,27.698 54.654,27.653 54.654,27.592 54.548,27.547 54.548,27.486 54.441,27.441     54.441,27.38 54.336,27.335 54.336,27.273 54.229,27.229 54.229,27.167 54.123,27.123 54.123,27.061 54.018,27.016 54.018,26.955     53.91,26.91 53.91,26.848 53.805,26.803 53.805,26.742 53.698,26.697 53.698,26.636 53.592,26.591 53.592,26.529 53.484,26.484     53.484,26.423 53.379,26.378 53.379,26.317 53.271,26.272 53.271,26.21 53.166,26.166 53.166,26.104 53.061,26.059 53.061,25.998     52.953,25.953 52.953,25.891 52.848,25.847 52.848,25.785 52.74,25.74 52.74,25.679 52.635,25.635 52.635,25.572 52.527,25.527     52.527,25.467 52.422,25.422 52.422,25.36 52.314,25.315 52.314,25.254 52.209,25.209 52.209,25.147 52.104,25.102 52.104,25.041     51.997,24.996 51.997,24.935 51.891,24.89 51.891,24.829 51.784,24.784 51.784,24.722 51.678,24.677 51.678,24.616 51.572,24.571     51.572,24.509 51.465,24.464 51.465,24.403 51.357,24.358 51.357,24.296 51.252,24.251 51.252,24.19 51.146,24.146 51.146,24.084     51.04,24.039 51.04,23.978 50.934,23.933 50.934,23.871 50.827,23.826 50.827,23.766 50.721,23.721 50.721,23.659 50.615,23.614     50.615,23.553 50.508,23.507 50.508,23.446 50.402,23.401 50.402,23.34 50.296,23.295 50.296,23.234 50.189,23.189 50.189,23.127     50.083,23.083 50.083,23.021 49.979,22.977 49.979,22.915 49.87,22.87 49.87,22.809 49.766,22.764 49.766,22.702 49.658,22.657     49.658,22.596 49.551,22.55 49.551,22.489 49.445,22.444 49.445,22.383 49.339,22.338 49.339,22.277 49.232,22.232 49.232,22.17     49.127,22.126 49.127,22.064 49.02,22.019 49.02,21.958 48.914,21.913 48.914,21.852 48.809,21.807 48.809,21.745 48.7,21.7     48.7,21.639 48.596,21.595 48.596,21.533 48.488,21.488 48.488,21.427 48.382,21.382 48.382,21.32 48.275,21.275 48.275,21.214     48.17,21.169 48.17,21.107 48.063,21.062 48.063,21.001 47.957,20.957 47.957,20.895 47.852,20.85 47.852,20.789 47.744,20.744     47.744,20.682 47.639,20.637 47.639,20.576 47.531,20.531 47.531,20.469 47.426,20.425 47.426,20.364 47.318,20.319     47.318,20.257 47.213,20.212 47.213,20.151 47.105,20.106 47.105,20.044 47,20 47,19.938 40.063,17 28,29 20,23 17,24 17,39     17.106,39.07 17.106,39.105 17.213,39.178 17.213,39.213 17.319,39.283 17.319,39.318 17.426,39.391 17.426,39.426 17.531,39.496     17.531,39.531 17.638,39.604 17.638,39.639 17.744,39.708 17.744,39.744 17.851,39.814 17.851,39.852 17.957,39.921     17.957,39.957 18.063,40.027 18.063,40.063 18.169,40.134 18.169,40.169 18.276,40.24 18.276,40.275 18.382,40.348 18.382,40.382     18.489,40.453 18.489,40.488 18.595,40.559 18.595,40.596 18.701,40.665 18.701,40.7 18.807,40.771 18.807,40.809 18.914,40.879     18.914,40.914 19.02,40.984 19.02,41.021 19.126,41.092 19.126,41.126 19.232,41.195 19.232,41.232 19.339,41.305 19.339,41.339     19.445,41.41 19.445,41.445 19.551,41.516 19.551,41.552 19.658,41.623 19.658,41.657 19.764,41.729 19.764,41.764 19.871,41.835     19.871,41.871 19.977,41.941 19.977,41.979 20.083,42.048 20.083,42.083 20.189,42.154 20.189,42.189 20.296,42.261     20.296,42.296 20.402,42.366 20.402,42.402 20.508,42.475 20.508,42.509 20.615,42.58 20.615,42.614 20.721,42.686 20.721,42.721     20.828,42.792 20.828,42.827 20.934,42.896 20.934,42.934 21.04,43.005 21.04,43.04 21.146,43.111 21.146,43.146 21.252,43.217     21.252,43.252 21.359,43.323 21.359,43.359 21.465,43.43 21.465,43.465 21.572,43.536 21.572,43.57 21.678,43.643 21.678,43.678     21.784,43.749 21.784,43.784 21.89,43.854 21.89,43.891 21.997,43.962 21.997,43.997 22.103,44.066 22.103,44.104 22.209,44.174     22.209,44.209 22.315,44.279 22.315,44.314 22.422,44.387 22.422,44.422 22.528,44.492 22.528,44.527 22.635,44.6 22.635,44.635     22.741,44.706 22.741,44.741 22.847,44.813 22.847,44.848 22.953,44.918 22.953,44.953 23.06,45.023 23.06,45.061 23.166,45.131     23.166,45.166 23.272,45.236 23.272,45.271 23.379,45.344 23.379,45.379 23.485,45.449 23.485,45.484 23.592,45.557     23.592,45.592 23.698,45.662 23.698,45.698 23.804,45.77 23.804,45.805 23.91,45.875 23.91,45.91 24.017,45.98 24.017,46.018     24.123,46.088 24.123,46.123 24.229,46.193 24.229,46.229 24.335,46.3 24.335,46.335 24.442,46.406 24.442,46.441 24.548,46.514     24.548,46.549 24.654,46.619 24.654,46.654 24.761,46.727 24.761,46.761 24.867,46.832 24.867,46.867 24.974,46.938     24.974,46.975 25.08,47.045 25.08,47.08 25.187,47.15 25.187,47.188 25.292,47.257 25.292,47.292 25.399,47.363 25.399,47.398     25.505,47.471 25.505,47.506 25.611,47.576 25.611,47.611 25.718,47.684 25.718,47.717 25.824,47.787 25.824,47.824     25.931,47.896 25.931,47.932 26.036,48.001 26.036,48.037 26.143,48.107 26.143,48.143 26.249,48.214 26.249,48.249 26.356,48.32     26.356,48.355 26.462,48.426 26.462,48.462 26.568,48.533 26.568,48.568 26.674,48.639 26.674,48.674 26.781,48.745     26.781,48.781 26.887,48.852 26.887,48.887 26.993,48.957 26.993,48.993 27.1,49.064 27.1,49.1 27.206,49.171 27.206,49.206     27.313,49.277 27.313,49.313 27.418,49.383 27.418,49.418 27.525,49.489 27.525,49.525 27.631,49.596 27.631,49.631     27.738,49.702 27.738,49.736 27.844,49.809 27.844,49.844 27.95,49.915 27.95,49.95 28.057,50.021 28.057,50.057 28.163,50.128     28.163,50.162 28.269,50.232 28.269,50.27 28.375,50.34 28.375,50.375 28.482,50.445 28.482,50.482 28.588,50.553 28.588,50.588     28.694,50.659 28.694,50.693 28.801,50.766 28.801,50.801 28.907,50.872 28.907,50.907 29.013,50.979 29.013,51.014 29.12,51.085     29.12,51.119 29.226,51.189 29.226,51.227 29.333,51.298 29.333,51.332 29.438,51.402 29.438,51.438 29.545,51.51 29.545,51.545     29.651,51.616 29.651,51.65 29.758,51.723 29.758,51.758 29.864,51.828 29.864,51.864 29.97,51.936 29.97,51.971 30.077,52.041     30.077,52.076 30.183,52.146 30.183,52.184 30.289,52.255 30.289,52.289 30.395,52.359 30.395,52.396 30.502,52.467     30.502,52.502 30.608,52.573 30.608,52.607 30.715,52.68 30.715,52.715 30.82,52.785 30.82,52.82 30.927,52.893 30.927,52.927     31.033,52.997 31.033,53.033 31.14,53.104 31.14,53.141 31.246,53.21 31.246,53.246 31.352,53.316 31.352,53.352 31.459,53.423     31.459,53.459 31.564,53.529 31.564,53.564 31.671,53.636 31.671,53.671 31.777,53.742 31.777,53.777 31.884,53.85 31.884,53.884     31.99,53.954 31.99,53.99 32.097,54.063 32.097,54.096 32.203,54.166 32.203,54.203 32.31,54.273 32.31,54.309 32.415,54.379     32.415,54.415 32.521,54.486 32.521,54.521 32.628,54.593 32.628,54.628 32.734,54.699 32.734,54.734 32.841,54.807     32.841,54.841 32.945,54.911 32.945,54.947 33.053,55.02 33.053,55.053 33.159,55.124 33.159,55.159 33.266,55.23 33.266,55.266     33.372,55.337 33.372,55.372 33.479,55.443 33.479,55.479 33.585,55.55 33.585,55.585 33.691,55.656 33.691,55.691 33.797,55.762     33.797,55.798 33.902,55.869 33.902,55.904 34.01,55.977 34.01,56.01 34.116,56.081 34.116,56.116 34.223,56.188 34.223,56.223     34.329,56.294 34.329,56.329 34.436,56.4 34.436,56.436 34.542,56.507 34.542,56.541 34.646,56.611 34.646,56.646 34.754,56.719     34.754,56.754 34.859,56.825 34.859,56.859 34.967,56.932 34.967,56.967 35.073,57.038 35.073,57.073 35.18,57.145 35.18,57.18     35.286,57.251 35.286,57.285 35.393,57.355 35.393,57.393 35.498,57.463 35.498,57.498 35.605,57.568 35.605,57.604     35.711,57.675 35.711,57.711 35.816,57.782 35.816,57.816 35.924,57.889 35.924,57.924 36.029,57.995 36.029,58.029     36.137,58.102 36.137,58.137 36.242,58.207 36.242,58.242 36.35,58.313 36.35,58.35 36.455,58.421 36.455,58.455 36.563,58.525     36.563,58.563 36.668,58.633 36.668,58.668 36.773,58.738 36.773,58.773 36.881,58.846 36.881,58.88 36.986,58.95 36.986,58.986     37.093,59.059 37.093,59.093 37.199,59.164 37.199,59.199 37.307,59.271 37.307,59.307 37.412,59.377 37.412,59.412     37.518,59.482 37.518,59.52 37.625,59.59 37.625,59.625 37.73,59.695 37.73,59.73 37.837,59.802 37.837,59.837 37.943,59.908     37.943,59.943 38.05,60.016 38.05,60.05 38.156,60.121 38.156,60.156 38.264,60.229 38.264,60.264 38.369,60.334 38.369,60.369     38.477,60.439 38.477,60.477 38.582,60.547 38.582,60.582 38.688,60.652 38.688,60.688 38.794,60.759 38.794,60.794 38.9,60.865     38.9,60.9 39.007,60.973 39.007,61.006 39.113,61.077 39.113,61.113 39.221,61.186 39.221,61.219 39.326,61.29 39.326,61.325     39.432,61.396 39.432,61.432 39.538,61.503 39.538,61.538 39.645,61.609 39.645,61.645 39.751,61.716 39.751,61.751     39.857,61.822 39.857,61.857 39.963,61.928 39.963,61.963 40.07,62.034 40.07,62.07 40.176,62.141 40.176,62.176 40.282,62.247     40.282,62.282 40.389,62.354 40.389,62.389 40.495,62.46 40.495,62.495 40.602,62.566 40.602,62.602 40.707,62.672 40.707,62.708     40.814,62.779 40.814,62.814 40.92,62.885 40.92,62.92 41.025,62.991 41.025,63.027 41.133,63.1 41.133,63.133 41.238,63.204     41.238,63.239 41.346,63.311 41.346,63.346 41.452,63.417 41.452,63.451 41.559,63.521 41.559,63.559 41.665,63.629     41.665,63.664 41.771,63.734 41.771,63.771 41.877,63.842 41.877,63.877 41.982,63.948 41.982,63.982 42.09,64.055 42.09,64.09     42.195,64.161 42.195,64.195 42.303,64.268 42.303,64.303 42.409,64.374 42.409,64.408 42.516,64.479 42.516,64.516     42.621,64.586 42.621,64.621 42.729,64.691 42.729,64.729 42.834,64.799 42.834,64.834 42.939,64.904 42.939,64.939     43.047,65.012 43.047,65.047 43.152,65.117 43.152,65.152 43.26,65.225 43.26,65.26 43.365,65.33 43.365,65.365 43.473,65.438     43.473,65.473 43.578,65.543 43.578,65.578 43.686,65.648 43.686,65.686 43.791,65.756 43.791,65.791 43.896,65.861     43.896,65.896 44.004,65.968 44.004,66.003 44.109,66.073 44.109,66.109 44.216,66.182 44.216,66.216 44.322,66.287     44.322,66.322 44.43,66.395 44.43,66.43 44.535,66.5 44.535,66.535 44.641,66.605 44.641,66.643 44.747,66.713 44.747,66.748     44.854,66.818 44.854,66.854 44.96,66.925 44.96,66.96 45.066,67.031 45.066,67.066 45.173,67.139 45.173,67.173 45.279,67.244     45.279,67.279 45.387,67.352 45.387,67.386 45.491,67.456 45.491,67.492 45.6,67.563 45.6,67.6 45.704,67.669 45.704,67.704     45.811,67.775 45.811,67.811 45.917,67.882 45.917,67.917 46.023,67.988 46.023,68.023 46.13,68.096 46.13,68.13 46.236,68.201     46.236,68.234 46.342,68.307 46.342,68.342 46.448,68.413 46.448,68.448 46.555,68.52 46.555,68.555 46.661,68.626 46.661,68.661     46.768,68.732 46.768,68.768 46.874,68.839 46.874,68.874 46.98,68.945 46.98,68.98 47.086,69.051 47.086,69.087 47.191,69.158     47.191,69.191 47.299,69.264 47.299,69.299 47.404,69.37 47.404,69.404 47.512,69.477 47.512,69.512 47.618,69.583 47.618,69.618     47.725,69.689 47.725,69.725 47.83,69.795 47.83,69.831 47.938,69.902 47.938,69.938 48.043,70.008 48.043,70.043 48.148,70.114     48.148,70.148 48.256,70.221 48.256,70.256 48.361,70.327 48.361,70.361 48.469,70.434 48.469,70.469 48.575,70.54 48.575,70.574     48.682,70.645 48.682,70.682 48.787,70.752 48.787,70.787 48.895,70.857 48.895,70.895 49,70.965 49,71 52,73 59.93,67.053     59.969,67.093 59.969,67.093 60.074,67.199 60.075,67.199 60.182,67.307 60.182,67.307 60.287,67.412 60.288,67.412 60.395,67.52     60.395,67.52 60.5,67.625 60.501,67.625 60.605,67.73 60.605,67.73 60.713,67.838 60.714,67.838 60.818,67.943 60.818,67.943     60.925,68.05 60.926,68.05 61.031,68.156 61.032,68.156 61.139,68.264 61.139,68.264 61.244,68.369 61.245,68.369 61.35,68.475     61.352,68.475 61.456,68.581 61.457,68.581 61.563,68.688 61.563,68.688 61.669,68.794 61.67,68.794 61.775,68.9 61.775,68.9     61.882,69.007 61.883,69.007 61.988,69.113 61.988,69.113 62.096,69.221 62.096,69.221 62.201,69.326 62.202,69.326     62.307,69.432 62.309,69.432 62.413,69.538 62.414,69.538 62.52,69.645 62.521,69.645 62.626,69.751 62.627,69.751 62.732,69.857     62.732,69.857 62.838,69.963 62.839,69.963 62.945,70.07 62.945,70.07 63.051,70.176 63.051,70.176 63.157,70.283 63.158,70.282     63.264,70.389 63.266,70.389 63.37,70.495 63.371,70.495 63.477,70.602 63.477,70.602 63.582,70.708 63.584,70.707 63.689,70.813     63.689,70.813 63.795,70.92 63.796,70.92 63.9,71.025 63.902,71.025 64.008,71.133 64.009,71.133 64.113,71.239 64.115,71.239     64.221,71.346 64.223,71.346 64.327,71.452 64.328,71.452 64.434,71.559 64.436,71.559 64.54,71.665 64.541,71.665 64.646,71.771     64.646,71.771 64.752,71.877 64.753,71.877 64.857,71.982 64.859,71.982 64.965,72.09 64.967,72.089 65.07,72.195 65.07,72.195     65.178,72.303 65.18,72.303 65.283,72.408 65.284,72.408 65.391,72.516 65.393,72.516 65.496,72.621 65.497,72.621 65.604,72.729     65.604,72.729 65.709,72.834 65.71,72.834 65.814,72.939 65.816,72.939 65.922,73.047 65.922,73.047 66.027,73.152 66.029,73.152     66.134,73.259 66.135,73.259 66.24,73.365 66.241,73.365 66.348,73.473 66.348,73.473 66.453,73.578 66.454,73.578 66.561,73.686     66.561,73.686 66.666,73.791 66.667,73.791 66.771,73.896 66.771,73.896 66.878,74.004 66.879,74.003 66.984,74.109     66.984,74.109 67.091,74.216 67.092,74.216 67.197,74.322 67.198,74.322 67.305,74.43 67.305,74.43 67.41,74.535 67.412,74.534     67.518,74.641 67.518,74.641 67.623,74.748 67.624,74.748 67.729,74.854 67.729,74.854 67.835,74.96 67.836,74.96 67.941,75.066     67.941,75.066 68.048,75.173 68.049,75.173 68.154,75.279 68.154,75.279 68.262,75.386 68.262,75.386 68.366,75.491     68.367,75.491 68.473,75.598 68.475,75.598 68.579,75.704 68.58,75.704 68.686,75.811 68.688,75.811 68.792,75.917 68.793,75.917     68.898,76.023 68.898,76.023 69.005,76.13 69.005,76.13 69.109,76.236 69.111,76.234 69.217,76.342 69.218,76.342 69.323,76.448     69.324,76.448 69.43,76.555 69.432,76.555 69.536,76.661 69.537,76.661 69.643,76.768 69.645,76.768 69.749,76.874 69.75,76.874     69.855,76.98 69.857,76.979 69.962,77.086 69.963,77.086 70.068,77.191 70.068,77.191 70.174,77.299 70.175,77.299 70.279,77.404     70.281,77.404 70.387,77.512 70.389,77.512 70.493,77.618 70.494,77.618 70.705,77.831 70.707,77.83 70.813,77.938 70.813,77.938     70.918,78.043 70.919,78.043 71.023,78.148 71.025,78.148 71.131,78.256 71.132,78.256 71.236,78.361 71.236,78.361     71.343,78.469 71.344,78.468 71.449,78.574 71.45,78.574 71.557,78.682 71.557,78.682 71.662,78.787 71.663,78.787 71.77,78.895     71.77,78.895 71.875,79 79,76 79,51.938   "/></g></g><path d="M40.063,17L28,29l-8-6l-3,1v15l3,2l8-6l11.875,12L47,44V19.938L40.063,17z M20,36v-8l5,4L20,36z   M40,38l-8-6l8-6V38z" fill="#FFFFFF" id="B_1_"/></svg>